<mxfile host="app.diagrams.net" agent="Mozilla/5.0 (Windows NT 10.0; Win64; x64) AppleWebKit/537.36 (KHTML, like Gecko) Chrome/130.0.0.0 Safari/537.36" version="26.1.1">
  <diagram name="Trang-1" id="rC4VJxHdjQEDBYwldfjm">
    <mxGraphModel dx="1405" dy="752" grid="0" gridSize="10" guides="1" tooltips="1" connect="1" arrows="1" fold="1" page="1" pageScale="1" pageWidth="827" pageHeight="1169" math="0" shadow="0">
      <root>
        <mxCell id="0" />
        <mxCell id="1" parent="0" />
        <mxCell id="vtsXS6kqBglkecylpVnj-2" value="" style="rounded=1;whiteSpace=wrap;html=1;fillColor=#e1d5e7;strokeColor=#9673a6;" parent="1" vertex="1">
          <mxGeometry x="238" y="361" width="426" height="380" as="geometry" />
        </mxCell>
        <mxCell id="vtsXS6kqBglkecylpVnj-20" value="" style="edgeStyle=orthogonalEdgeStyle;rounded=0;orthogonalLoop=1;jettySize=auto;html=1;" parent="1" source="vtsXS6kqBglkecylpVnj-5" target="vtsXS6kqBglkecylpVnj-6" edge="1">
          <mxGeometry relative="1" as="geometry" />
        </mxCell>
        <mxCell id="vtsXS6kqBglkecylpVnj-5" value="LCD&amp;nbsp;&lt;div&gt;driver&lt;/div&gt;" style="rounded=1;whiteSpace=wrap;html=1;fillColor=#d5e8d4;strokeColor=#82b366;" parent="1" vertex="1">
          <mxGeometry x="301" y="381" width="80" height="80" as="geometry" />
        </mxCell>
        <mxCell id="vtsXS6kqBglkecylpVnj-6" value="LCD I2C&amp;nbsp;&lt;span style=&quot;background-color: transparent; color: light-dark(rgb(0, 0, 0), rgb(255, 255, 255));&quot;&gt;16x2&lt;/span&gt;" style="rounded=1;whiteSpace=wrap;html=1;fillColor=#d5e8d4;strokeColor=#82b366;" parent="1" vertex="1">
          <mxGeometry x="281" y="230" width="120" height="60" as="geometry" />
        </mxCell>
        <mxCell id="vtsXS6kqBglkecylpVnj-7" value="UART driver" style="rounded=1;whiteSpace=wrap;html=1;fillColor=#b0e3e6;strokeColor=#0e8088;" parent="1" vertex="1">
          <mxGeometry x="539" y="511" width="80" height="80" as="geometry" />
        </mxCell>
        <mxCell id="vtsXS6kqBglkecylpVnj-8" value="&lt;font style=&quot;font-size: 18px;&quot;&gt;ESP8266&lt;/font&gt;" style="rounded=1;whiteSpace=wrap;html=1;fillColor=#b0e3e6;strokeColor=#0e8088;" parent="1" vertex="1">
          <mxGeometry x="763" y="473" width="200" height="160" as="geometry" />
        </mxCell>
        <mxCell id="vtsXS6kqBglkecylpVnj-10" value="CLOUD&lt;div&gt;ThingsBoard&lt;/div&gt;" style="ellipse;shape=cloud;whiteSpace=wrap;html=1;fillColor=#dae8fc;gradientColor=#7ea6e0;strokeColor=#6c8ebf;" parent="1" vertex="1">
          <mxGeometry x="1053" y="493" width="180" height="120" as="geometry" />
        </mxCell>
        <mxCell id="vtsXS6kqBglkecylpVnj-11" value="RC522&amp;nbsp;&lt;div&gt;driver&lt;/div&gt;" style="rounded=1;whiteSpace=wrap;html=1;fillColor=#dae8fc;strokeColor=#6c8ebf;" parent="1" vertex="1">
          <mxGeometry x="439" y="374" width="80" height="80" as="geometry" />
        </mxCell>
        <mxCell id="vtsXS6kqBglkecylpVnj-12" value="Module RFID&lt;div&gt;RC522&lt;/div&gt;" style="rounded=1;whiteSpace=wrap;html=1;fillColor=#dae8fc;strokeColor=#6c8ebf;" parent="1" vertex="1">
          <mxGeometry x="419" y="233" width="120" height="60" as="geometry" />
        </mxCell>
        <mxCell id="vtsXS6kqBglkecylpVnj-22" value="" style="edgeStyle=orthogonalEdgeStyle;rounded=0;orthogonalLoop=1;jettySize=auto;html=1;" parent="1" source="vtsXS6kqBglkecylpVnj-13" target="vtsXS6kqBglkecylpVnj-14" edge="1">
          <mxGeometry relative="1" as="geometry" />
        </mxCell>
        <mxCell id="vtsXS6kqBglkecylpVnj-13" value="SERVO&lt;div&gt;driver&lt;/div&gt;" style="rounded=1;whiteSpace=wrap;html=1;fillColor=#fff2cc;strokeColor=#d6b656;" parent="1" vertex="1">
          <mxGeometry x="301" y="643" width="80" height="80" as="geometry" />
        </mxCell>
        <mxCell id="vtsXS6kqBglkecylpVnj-14" value="Servo Motor" style="rounded=1;whiteSpace=wrap;html=1;fillColor=#fff2cc;strokeColor=#d6b656;" parent="1" vertex="1">
          <mxGeometry x="281" y="813" width="120" height="60" as="geometry" />
        </mxCell>
        <mxCell id="vtsXS6kqBglkecylpVnj-23" value="" style="edgeStyle=orthogonalEdgeStyle;rounded=0;orthogonalLoop=1;jettySize=auto;html=1;" parent="1" source="vtsXS6kqBglkecylpVnj-15" target="vtsXS6kqBglkecylpVnj-16" edge="1">
          <mxGeometry relative="1" as="geometry" />
        </mxCell>
        <mxCell id="vtsXS6kqBglkecylpVnj-15" value="BUZZER driver" style="rounded=1;whiteSpace=wrap;html=1;fillColor=#f8cecc;strokeColor=#b85450;" parent="1" vertex="1">
          <mxGeometry x="442" y="640" width="80" height="83" as="geometry" />
        </mxCell>
        <mxCell id="vtsXS6kqBglkecylpVnj-16" value="BUZZER" style="rounded=1;whiteSpace=wrap;html=1;fillColor=#f8cecc;strokeColor=#b85450;" parent="1" vertex="1">
          <mxGeometry x="422" y="813" width="120" height="60" as="geometry" />
        </mxCell>
        <mxCell id="vtsXS6kqBglkecylpVnj-28" value="" style="shape=flexArrow;endArrow=classic;startArrow=classic;html=1;rounded=0;entryX=0;entryY=0.5;entryDx=0;entryDy=0;" parent="1" target="vtsXS6kqBglkecylpVnj-8" edge="1">
          <mxGeometry width="100" height="100" relative="1" as="geometry">
            <mxPoint x="619" y="550.5" as="sourcePoint" />
            <mxPoint x="719" y="550.5" as="targetPoint" />
          </mxGeometry>
        </mxCell>
        <mxCell id="vtsXS6kqBglkecylpVnj-30" value="" style="shape=flexArrow;endArrow=classic;startArrow=classic;html=1;rounded=0;" parent="1" edge="1">
          <mxGeometry width="100" height="100" relative="1" as="geometry">
            <mxPoint x="963" y="552.5" as="sourcePoint" />
            <mxPoint x="1063" y="552.5" as="targetPoint" />
          </mxGeometry>
        </mxCell>
        <mxCell id="vtsXS6kqBglkecylpVnj-31" value="&lt;span style=&quot;font-size: 24px;&quot;&gt;&lt;b&gt;iLock Pro&lt;/b&gt;&lt;/span&gt;" style="text;html=1;align=center;verticalAlign=middle;whiteSpace=wrap;rounded=0;" parent="1" vertex="1">
          <mxGeometry x="842" y="332" width="320" height="60" as="geometry" />
        </mxCell>
        <mxCell id="pcf5fbPbPv85rcVFr6ap-1" value="" style="endArrow=classic;startArrow=classic;html=1;rounded=0;entryX=0.5;entryY=1;entryDx=0;entryDy=0;" parent="1" target="vtsXS6kqBglkecylpVnj-12" edge="1">
          <mxGeometry width="50" height="50" relative="1" as="geometry">
            <mxPoint x="478" y="374" as="sourcePoint" />
            <mxPoint x="528" y="324" as="targetPoint" />
          </mxGeometry>
        </mxCell>
        <mxCell id="J9zHtnutEQoKwPYgRGtc-1" value="CONTROL&lt;div&gt;CENTER&lt;/div&gt;" style="ellipse;whiteSpace=wrap;html=1;aspect=fixed;fillColor=#76608a;strokeColor=#432D57;fontColor=#ffffff;" parent="1" vertex="1">
          <mxGeometry x="374" y="511" width="80" height="80" as="geometry" />
        </mxCell>
        <mxCell id="J9zHtnutEQoKwPYgRGtc-2" value="I2C" style="text;html=1;align=center;verticalAlign=middle;resizable=0;points=[];autosize=1;strokeColor=none;fillColor=none;" parent="1" vertex="1">
          <mxGeometry x="344" y="318" width="37" height="26" as="geometry" />
        </mxCell>
        <mxCell id="J9zHtnutEQoKwPYgRGtc-3" value="SPI&lt;span style=&quot;color: rgba(0, 0, 0, 0); font-family: monospace; font-size: 0px; text-align: start;&quot;&gt;%3CmxGraphModel%3E%3Croot%3E%3CmxCell%20id%3D%220%22%2F%3E%3CmxCell%20id%3D%221%22%20parent%3D%220%22%2F%3E%3CmxCell%20id%3D%222%22%20value%3D%22I2C%22%20style%3D%22text%3Bhtml%3D1%3Balign%3Dcenter%3BverticalAlign%3Dmiddle%3Bresizable%3D0%3Bpoints%3D%5B%5D%3Bautosize%3D1%3BstrokeColor%3Dnone%3BfillColor%3Dnone%3B%22%20vertex%3D%221%22%20parent%3D%221%22%3E%3CmxGeometry%20x%3D%22344%22%20y%3D%22318%22%20width%3D%2237%22%20height%3D%2226%22%20as%3D%22geometry%22%2F%3E%3C%2FmxCell%3E%3C%2Froot%3E%3C%2FmxGraphModel%3E&lt;/span&gt;" style="text;html=1;align=center;verticalAlign=middle;resizable=0;points=[];autosize=1;strokeColor=none;fillColor=none;" parent="1" vertex="1">
          <mxGeometry x="479" y="318" width="37" height="26" as="geometry" />
        </mxCell>
        <mxCell id="J9zHtnutEQoKwPYgRGtc-4" value="PWM" style="text;html=1;align=center;verticalAlign=middle;resizable=0;points=[];autosize=1;strokeColor=none;fillColor=none;" parent="1" vertex="1">
          <mxGeometry x="339" y="758" width="47" height="26" as="geometry" />
        </mxCell>
        <mxCell id="J9zHtnutEQoKwPYgRGtc-5" value="FM" style="text;html=1;align=center;verticalAlign=middle;resizable=0;points=[];autosize=1;strokeColor=none;fillColor=none;" parent="1" vertex="1">
          <mxGeometry x="486" y="758" width="35" height="26" as="geometry" />
        </mxCell>
        <mxCell id="J9zHtnutEQoKwPYgRGtc-6" value="UART" style="text;html=1;align=center;verticalAlign=middle;resizable=0;points=[];autosize=1;strokeColor=none;fillColor=none;" parent="1" vertex="1">
          <mxGeometry x="681" y="515" width="50" height="26" as="geometry" />
        </mxCell>
        <mxCell id="J9zHtnutEQoKwPYgRGtc-7" value="MQTT" style="text;html=1;align=center;verticalAlign=middle;resizable=0;points=[];autosize=1;strokeColor=none;fillColor=none;" parent="1" vertex="1">
          <mxGeometry x="988" y="511" width="52" height="26" as="geometry" />
        </mxCell>
        <mxCell id="J9zHtnutEQoKwPYgRGtc-11" value="RFID CARD" style="shape=process;whiteSpace=wrap;html=1;backgroundOutline=1;fillColor=#bac8d3;strokeColor=#23445d;rounded=0;glass=0;shadow=0;" parent="1" vertex="1">
          <mxGeometry x="600" y="220" width="144" height="86" as="geometry" />
        </mxCell>
        <mxCell id="J9zHtnutEQoKwPYgRGtc-13" value="" style="endArrow=classic;startArrow=classic;html=1;rounded=0;exitX=1;exitY=0.5;exitDx=0;exitDy=0;entryX=0;entryY=0.5;entryDx=0;entryDy=0;" parent="1" source="vtsXS6kqBglkecylpVnj-12" target="J9zHtnutEQoKwPYgRGtc-11" edge="1">
          <mxGeometry width="50" height="50" relative="1" as="geometry">
            <mxPoint x="745" y="535" as="sourcePoint" />
            <mxPoint x="795" y="485" as="targetPoint" />
          </mxGeometry>
        </mxCell>
        <mxCell id="J9zHtnutEQoKwPYgRGtc-14" value="RF" style="text;html=1;align=center;verticalAlign=middle;resizable=0;points=[];autosize=1;strokeColor=none;fillColor=none;" parent="1" vertex="1">
          <mxGeometry x="553" y="233" width="34" height="26" as="geometry" />
        </mxCell>
        <mxCell id="J9zHtnutEQoKwPYgRGtc-17" value="" style="endArrow=classic;html=1;rounded=0;entryX=0.5;entryY=1;entryDx=0;entryDy=0;" parent="1" target="vtsXS6kqBglkecylpVnj-5" edge="1">
          <mxGeometry width="50" height="50" relative="1" as="geometry">
            <mxPoint x="386" y="521.71" as="sourcePoint" />
            <mxPoint x="305" y="526.297610619469" as="targetPoint" />
          </mxGeometry>
        </mxCell>
        <mxCell id="J9zHtnutEQoKwPYgRGtc-20" value="" style="endArrow=classic;html=1;rounded=0;exitX=0;exitY=1;exitDx=0;exitDy=0;entryX=0.5;entryY=0;entryDx=0;entryDy=0;" parent="1" source="J9zHtnutEQoKwPYgRGtc-1" target="vtsXS6kqBglkecylpVnj-13" edge="1">
          <mxGeometry width="50" height="50" relative="1" as="geometry">
            <mxPoint x="745" y="535" as="sourcePoint" />
            <mxPoint x="795" y="485" as="targetPoint" />
          </mxGeometry>
        </mxCell>
        <mxCell id="J9zHtnutEQoKwPYgRGtc-21" value="" style="endArrow=classic;html=1;rounded=0;exitX=1;exitY=1;exitDx=0;exitDy=0;entryX=0.5;entryY=0;entryDx=0;entryDy=0;" parent="1" source="J9zHtnutEQoKwPYgRGtc-1" target="vtsXS6kqBglkecylpVnj-15" edge="1">
          <mxGeometry width="50" height="50" relative="1" as="geometry">
            <mxPoint x="745" y="535" as="sourcePoint" />
            <mxPoint x="795" y="485" as="targetPoint" />
          </mxGeometry>
        </mxCell>
        <mxCell id="J9zHtnutEQoKwPYgRGtc-23" value="" style="endArrow=classic;startArrow=classic;html=1;rounded=0;exitX=1;exitY=0;exitDx=0;exitDy=0;entryX=0.5;entryY=1;entryDx=0;entryDy=0;" parent="1" source="J9zHtnutEQoKwPYgRGtc-1" target="vtsXS6kqBglkecylpVnj-11" edge="1">
          <mxGeometry width="50" height="50" relative="1" as="geometry">
            <mxPoint x="745" y="535" as="sourcePoint" />
            <mxPoint x="795" y="485" as="targetPoint" />
          </mxGeometry>
        </mxCell>
        <mxCell id="J9zHtnutEQoKwPYgRGtc-24" value="" style="endArrow=classic;startArrow=classic;html=1;rounded=0;exitX=1;exitY=0.5;exitDx=0;exitDy=0;entryX=0;entryY=0.5;entryDx=0;entryDy=0;" parent="1" source="J9zHtnutEQoKwPYgRGtc-1" target="vtsXS6kqBglkecylpVnj-7" edge="1">
          <mxGeometry width="50" height="50" relative="1" as="geometry">
            <mxPoint x="745" y="535" as="sourcePoint" />
            <mxPoint x="795" y="485" as="targetPoint" />
          </mxGeometry>
        </mxCell>
      </root>
    </mxGraphModel>
  </diagram>
</mxfile>
